<mxfile host="65bd71144e">
    <diagram id="bVoswQC8T6PlKmy4Bn8u" name="Page-1">
        <mxGraphModel dx="1147" dy="832" grid="1" gridSize="10" guides="1" tooltips="1" connect="1" arrows="1" fold="1" page="1" pageScale="1" pageWidth="827" pageHeight="1169" math="0" shadow="0">
            <root>
                <mxCell id="0"/>
                <mxCell id="1" parent="0"/>
                <mxCell id="361" style="edgeStyle=none;html=1;entryX=0.5;entryY=0;entryDx=0;entryDy=0;" parent="1" source="362" target="364" edge="1">
                    <mxGeometry relative="1" as="geometry"/>
                </mxCell>
                <mxCell id="362" value="Start" style="ellipse;whiteSpace=wrap;html=1;" parent="1" vertex="1">
                    <mxGeometry x="340" y="680" width="120" height="60" as="geometry"/>
                </mxCell>
                <mxCell id="363" value="" style="edgeStyle=none;html=1;" parent="1" source="364" target="365" edge="1">
                    <mxGeometry relative="1" as="geometry"/>
                </mxCell>
                <mxCell id="364" value="return this.licensePlate" style="shape=parallelogram;perimeter=parallelogramPerimeter;whiteSpace=wrap;html=1;fixedSize=1;" parent="1" vertex="1">
                    <mxGeometry x="325" y="760" width="150" height="50" as="geometry"/>
                </mxCell>
                <mxCell id="365" value="Stop" style="ellipse;whiteSpace=wrap;html=1;" parent="1" vertex="1">
                    <mxGeometry x="340" y="830" width="120" height="60" as="geometry"/>
                </mxCell>
                <mxCell id="366" value="getLicensePlate()" style="text;html=1;align=center;verticalAlign=middle;resizable=0;points=[];autosize=1;strokeColor=none;fillColor=none;" parent="1" vertex="1">
                    <mxGeometry x="345.5" y="650" width="110" height="20" as="geometry"/>
                </mxCell>
                <mxCell id="489" style="edgeStyle=none;html=1;entryX=0.5;entryY=0;entryDx=0;entryDy=0;" edge="1" parent="1" source="368" target="488">
                    <mxGeometry relative="1" as="geometry"/>
                </mxCell>
                <mxCell id="368" value="Start" style="ellipse;whiteSpace=wrap;html=1;" parent="1" vertex="1">
                    <mxGeometry x="512.5500000000001" y="680" width="120" height="60" as="geometry"/>
                </mxCell>
                <mxCell id="372" value="setLicensePlate()" style="text;html=1;align=center;verticalAlign=middle;resizable=0;points=[];autosize=1;strokeColor=none;fillColor=none;" parent="1" vertex="1">
                    <mxGeometry x="517.5000000000001" y="650" width="110" height="20" as="geometry"/>
                </mxCell>
                <mxCell id="482" value="" style="edgeStyle=none;html=1;" edge="1" parent="1" source="374" target="480">
                    <mxGeometry relative="1" as="geometry"/>
                </mxCell>
                <mxCell id="374" value="Start" style="ellipse;whiteSpace=wrap;html=1;" parent="1" vertex="1">
                    <mxGeometry x="1090.5" y="680" width="120" height="60" as="geometry"/>
                </mxCell>
                <mxCell id="493" style="edgeStyle=none;html=1;exitX=0.5;exitY=0;exitDx=0;exitDy=0;" edge="1" parent="1" source="377">
                    <mxGeometry relative="1" as="geometry">
                        <mxPoint x="1150" y="840" as="targetPoint"/>
                    </mxGeometry>
                </mxCell>
                <mxCell id="377" value="Stop" style="ellipse;whiteSpace=wrap;html=1;" parent="1" vertex="1">
                    <mxGeometry x="1090.5" y="830" width="120" height="60" as="geometry"/>
                </mxCell>
                <mxCell id="378" value="getdoorNum()" style="text;html=1;align=center;verticalAlign=middle;resizable=0;points=[];autosize=1;strokeColor=none;fillColor=none;" parent="1" vertex="1">
                    <mxGeometry x="1105" y="650" width="90" height="20" as="geometry"/>
                </mxCell>
                <mxCell id="465" style="edgeStyle=none;html=1;entryX=0.5;entryY=0;entryDx=0;entryDy=0;" edge="1" parent="1" source="382" target="461">
                    <mxGeometry relative="1" as="geometry"/>
                </mxCell>
                <mxCell id="382" value="Start" style="ellipse;whiteSpace=wrap;html=1;" parent="1" vertex="1">
                    <mxGeometry x="705.25" y="680" width="120" height="60" as="geometry"/>
                </mxCell>
                <mxCell id="386" value="getColor()" style="text;html=1;align=center;verticalAlign=middle;resizable=0;points=[];autosize=1;strokeColor=none;fillColor=none;" parent="1" vertex="1">
                    <mxGeometry x="733.25" y="650" width="70" height="20" as="geometry"/>
                </mxCell>
                <mxCell id="414" value="" style="edgeStyle=none;html=1;" edge="1" parent="1" source="415" target="417">
                    <mxGeometry relative="1" as="geometry"/>
                </mxCell>
                <mxCell id="415" value="Start" style="ellipse;whiteSpace=wrap;html=1;" vertex="1" parent="1">
                    <mxGeometry x="1637.47" y="680" width="120" height="60" as="geometry"/>
                </mxCell>
                <mxCell id="416" value="" style="edgeStyle=none;html=1;" edge="1" parent="1" source="417" target="418">
                    <mxGeometry relative="1" as="geometry"/>
                </mxCell>
                <mxCell id="417" value="show the status of the Vehicle" style="shape=parallelogram;perimeter=parallelogramPerimeter;whiteSpace=wrap;html=1;fixedSize=1;" vertex="1" parent="1">
                    <mxGeometry x="1620" y="760" width="154.94" height="50" as="geometry"/>
                </mxCell>
                <mxCell id="418" value="Stop" style="ellipse;whiteSpace=wrap;html=1;" vertex="1" parent="1">
                    <mxGeometry x="1637.47" y="830" width="120" height="60" as="geometry"/>
                </mxCell>
                <mxCell id="419" value="status()" style="text;html=1;align=center;verticalAlign=middle;resizable=0;points=[];autosize=1;strokeColor=none;fillColor=none;" vertex="1" parent="1">
                    <mxGeometry x="1667.47" y="650" width="60" height="20" as="geometry"/>
                </mxCell>
                <mxCell id="422" value="" style="edgeStyle=none;html=1;" edge="1" parent="1" source="423" target="425">
                    <mxGeometry relative="1" as="geometry"/>
                </mxCell>
                <mxCell id="423" value="Start" style="ellipse;whiteSpace=wrap;html=1;" vertex="1" parent="1">
                    <mxGeometry x="582.5" y="1015" width="120" height="60" as="geometry"/>
                </mxCell>
                <mxCell id="504" value="" style="edgeStyle=none;html=1;" edge="1" parent="1" source="425" target="502">
                    <mxGeometry relative="1" as="geometry"/>
                </mxCell>
                <mxCell id="425" value="get accelerationPower" style="shape=parallelogram;perimeter=parallelogramPerimeter;whiteSpace=wrap;html=1;fixedSize=1;" vertex="1" parent="1">
                    <mxGeometry x="567.5" y="1100" width="150" height="40" as="geometry"/>
                </mxCell>
                <mxCell id="426" value="Stop" style="ellipse;whiteSpace=wrap;html=1;" vertex="1" parent="1">
                    <mxGeometry x="582.5" y="1470" width="120" height="60" as="geometry"/>
                </mxCell>
                <mxCell id="427" value="accelerate()" style="text;html=1;align=center;verticalAlign=middle;resizable=0;points=[];autosize=1;strokeColor=none;fillColor=none;" vertex="1" parent="1">
                    <mxGeometry x="602.5" y="985" width="80" height="20" as="geometry"/>
                </mxCell>
                <mxCell id="513" value="" style="edgeStyle=none;html=1;" edge="1" parent="1" source="430" target="510">
                    <mxGeometry relative="1" as="geometry"/>
                </mxCell>
                <mxCell id="430" value="Start" style="ellipse;whiteSpace=wrap;html=1;" vertex="1" parent="1">
                    <mxGeometry x="1133" y="1015" width="120" height="60" as="geometry"/>
                </mxCell>
                <mxCell id="433" value="Stop" style="ellipse;whiteSpace=wrap;html=1;" vertex="1" parent="1">
                    <mxGeometry x="1138" y="1470" width="120" height="60" as="geometry"/>
                </mxCell>
                <mxCell id="434" value="break.()" style="text;html=1;align=center;verticalAlign=middle;resizable=0;points=[];autosize=1;strokeColor=none;fillColor=none;" vertex="1" parent="1">
                    <mxGeometry x="1163" y="995" width="60" height="20" as="geometry"/>
                </mxCell>
                <mxCell id="451" value="" style="edgeStyle=none;html=1;" edge="1" parent="1" source="442" target="450">
                    <mxGeometry relative="1" as="geometry"/>
                </mxCell>
                <mxCell id="442" value="Start" style="ellipse;whiteSpace=wrap;html=1;" vertex="1" parent="1">
                    <mxGeometry x="1441.25" y="680" width="120" height="60" as="geometry"/>
                </mxCell>
                <mxCell id="445" value="Stop" style="ellipse;whiteSpace=wrap;html=1;" vertex="1" parent="1">
                    <mxGeometry x="1441.25" y="850" width="120" height="60" as="geometry"/>
                </mxCell>
                <mxCell id="446" value="constructor.()" style="text;html=1;align=center;verticalAlign=middle;resizable=0;points=[];autosize=1;strokeColor=none;fillColor=none;" vertex="1" parent="1">
                    <mxGeometry x="1456.25" y="650" width="90" height="20" as="geometry"/>
                </mxCell>
                <mxCell id="452" value="" style="edgeStyle=none;html=1;" edge="1" parent="1" source="450" target="445">
                    <mxGeometry relative="1" as="geometry"/>
                </mxCell>
                <mxCell id="450" value="this.licencePlate = licensePlate&lt;br&gt;this.color = color&lt;br&gt;this.doorNum = doorNum&lt;br&gt;this.maxSpeed = maxSpeed" style="whiteSpace=wrap;html=1;" vertex="1" parent="1">
                    <mxGeometry x="1400" y="760" width="202.5" height="70" as="geometry"/>
                </mxCell>
                <mxCell id="492" style="edgeStyle=none;html=1;entryX=0.5;entryY=0;entryDx=0;entryDy=0;" edge="1" parent="1" source="454" target="458">
                    <mxGeometry relative="1" as="geometry"/>
                </mxCell>
                <mxCell id="454" value="this.licencePlate = licensePlate" style="whiteSpace=wrap;html=1;" vertex="1" parent="1">
                    <mxGeometry x="480.06" y="820" width="184.88" height="50" as="geometry"/>
                </mxCell>
                <mxCell id="458" value="Stop" style="ellipse;whiteSpace=wrap;html=1;" vertex="1" parent="1">
                    <mxGeometry x="512.5500000000001" y="890" width="120" height="60" as="geometry"/>
                </mxCell>
                <mxCell id="463" style="edgeStyle=none;html=1;entryX=0.5;entryY=0;entryDx=0;entryDy=0;" edge="1" parent="1" source="461" target="462">
                    <mxGeometry relative="1" as="geometry"/>
                </mxCell>
                <mxCell id="461" value="return this.color" style="shape=parallelogram;perimeter=parallelogramPerimeter;whiteSpace=wrap;html=1;fixedSize=1;" vertex="1" parent="1">
                    <mxGeometry x="690" y="760" width="150" height="50" as="geometry"/>
                </mxCell>
                <mxCell id="462" value="Stop" style="ellipse;whiteSpace=wrap;html=1;" vertex="1" parent="1">
                    <mxGeometry x="705" y="830" width="120" height="60" as="geometry"/>
                </mxCell>
                <mxCell id="484" value="" style="edgeStyle=none;html=1;" edge="1" parent="1" source="467" target="483">
                    <mxGeometry relative="1" as="geometry"/>
                </mxCell>
                <mxCell id="467" value="Start" style="ellipse;whiteSpace=wrap;html=1;" vertex="1" parent="1">
                    <mxGeometry x="893.25" y="680" width="120" height="60" as="geometry"/>
                </mxCell>
                <mxCell id="468" value="setColor()" style="text;html=1;align=center;verticalAlign=middle;resizable=0;points=[];autosize=1;strokeColor=none;fillColor=none;" vertex="1" parent="1">
                    <mxGeometry x="918.25" y="650" width="70" height="20" as="geometry"/>
                </mxCell>
                <mxCell id="471" value="Stop" style="ellipse;whiteSpace=wrap;html=1;" vertex="1" parent="1">
                    <mxGeometry x="893.25" y="890" width="120" height="60" as="geometry"/>
                </mxCell>
                <mxCell id="486" value="" style="edgeStyle=none;html=1;" edge="1" parent="1" source="478" target="471">
                    <mxGeometry relative="1" as="geometry"/>
                </mxCell>
                <mxCell id="478" value="this.color = color" style="whiteSpace=wrap;html=1;" vertex="1" parent="1">
                    <mxGeometry x="860.8100000000001" y="820" width="184.88" height="50" as="geometry"/>
                </mxCell>
                <mxCell id="481" value="" style="edgeStyle=none;html=1;" edge="1" parent="1" source="480" target="377">
                    <mxGeometry relative="1" as="geometry"/>
                </mxCell>
                <mxCell id="480" value="return this.doorNum" style="shape=parallelogram;perimeter=parallelogramPerimeter;whiteSpace=wrap;html=1;fixedSize=1;" vertex="1" parent="1">
                    <mxGeometry x="1075" y="760" width="150" height="50" as="geometry"/>
                </mxCell>
                <mxCell id="485" value="" style="edgeStyle=none;html=1;" edge="1" parent="1" source="483" target="478">
                    <mxGeometry relative="1" as="geometry"/>
                </mxCell>
                <mxCell id="483" value="get color" style="shape=parallelogram;perimeter=parallelogramPerimeter;whiteSpace=wrap;html=1;fixedSize=1;" vertex="1" parent="1">
                    <mxGeometry x="878.25" y="750" width="150" height="50" as="geometry"/>
                </mxCell>
                <mxCell id="491" style="edgeStyle=none;html=1;entryX=0.5;entryY=0;entryDx=0;entryDy=0;" edge="1" parent="1" source="488" target="454">
                    <mxGeometry relative="1" as="geometry"/>
                </mxCell>
                <mxCell id="488" value="get licensePlate" style="shape=parallelogram;perimeter=parallelogramPerimeter;whiteSpace=wrap;html=1;fixedSize=1;" vertex="1" parent="1">
                    <mxGeometry x="497.5" y="750" width="150" height="50" as="geometry"/>
                </mxCell>
                <mxCell id="494" value="" style="edgeStyle=none;html=1;" edge="1" parent="1" source="495" target="500">
                    <mxGeometry relative="1" as="geometry"/>
                </mxCell>
                <mxCell id="495" value="Start" style="ellipse;whiteSpace=wrap;html=1;" vertex="1" parent="1">
                    <mxGeometry x="1256.5" y="680" width="120" height="60" as="geometry"/>
                </mxCell>
                <mxCell id="496" style="edgeStyle=none;html=1;exitX=0.5;exitY=0;exitDx=0;exitDy=0;" edge="1" parent="1" source="497">
                    <mxGeometry relative="1" as="geometry">
                        <mxPoint x="1316" y="840" as="targetPoint"/>
                    </mxGeometry>
                </mxCell>
                <mxCell id="497" value="Stop" style="ellipse;whiteSpace=wrap;html=1;" vertex="1" parent="1">
                    <mxGeometry x="1256.5" y="830" width="120" height="60" as="geometry"/>
                </mxCell>
                <mxCell id="498" value="getSpeed()" style="text;html=1;align=center;verticalAlign=middle;resizable=0;points=[];autosize=1;strokeColor=none;fillColor=none;" vertex="1" parent="1">
                    <mxGeometry x="1281" y="650" width="70" height="20" as="geometry"/>
                </mxCell>
                <mxCell id="499" value="" style="edgeStyle=none;html=1;" edge="1" parent="1" source="500" target="497">
                    <mxGeometry relative="1" as="geometry"/>
                </mxCell>
                <mxCell id="500" value="return this.speed" style="shape=parallelogram;perimeter=parallelogramPerimeter;whiteSpace=wrap;html=1;fixedSize=1;" vertex="1" parent="1">
                    <mxGeometry x="1241" y="760" width="150" height="50" as="geometry"/>
                </mxCell>
                <mxCell id="506" value="" style="edgeStyle=none;html=1;" edge="1" parent="1" source="502" target="505">
                    <mxGeometry relative="1" as="geometry"/>
                </mxCell>
                <mxCell id="502" value="get accelerationTime" style="shape=parallelogram;perimeter=parallelogramPerimeter;whiteSpace=wrap;html=1;fixedSize=1;" vertex="1" parent="1">
                    <mxGeometry x="562.5" y="1160" width="160" height="40" as="geometry"/>
                </mxCell>
                <mxCell id="519" value="" style="edgeStyle=none;html=1;" edge="1" parent="1" source="505" target="518">
                    <mxGeometry relative="1" as="geometry"/>
                </mxCell>
                <mxCell id="505" value="this.speed = accelerationPower * accelerationTime + this.speed" style="whiteSpace=wrap;html=1;" vertex="1" parent="1">
                    <mxGeometry x="548.3700000000001" y="1220" width="184.88" height="50" as="geometry"/>
                </mxCell>
                <mxCell id="514" value="" style="edgeStyle=none;html=1;" edge="1" parent="1" source="510" target="512">
                    <mxGeometry relative="1" as="geometry"/>
                </mxCell>
                <mxCell id="510" value="get breakPowe" style="shape=parallelogram;perimeter=parallelogramPerimeter;whiteSpace=wrap;html=1;fixedSize=1;" vertex="1" parent="1">
                    <mxGeometry x="1118" y="1100" width="150" height="40" as="geometry"/>
                </mxCell>
                <mxCell id="517" value="" style="edgeStyle=none;html=1;" edge="1" parent="1" source="512" target="516">
                    <mxGeometry relative="1" as="geometry"/>
                </mxCell>
                <mxCell id="512" value="get breakTime" style="shape=parallelogram;perimeter=parallelogramPerimeter;whiteSpace=wrap;html=1;fixedSize=1;" vertex="1" parent="1">
                    <mxGeometry x="1118" y="1160" width="160" height="40" as="geometry"/>
                </mxCell>
                <mxCell id="527" value="" style="edgeStyle=none;rounded=0;html=1;" edge="1" parent="1" source="516" target="526">
                    <mxGeometry relative="1" as="geometry"/>
                </mxCell>
                <mxCell id="516" value="this.speed = this.speed - breakpower* breakTime" style="whiteSpace=wrap;html=1;" vertex="1" parent="1">
                    <mxGeometry x="1105.0000000000002" y="1220" width="184.88" height="50" as="geometry"/>
                </mxCell>
                <mxCell id="521" style="edgeStyle=none;html=1;entryX=0.5;entryY=0;entryDx=0;entryDy=0;" edge="1" parent="1" source="518" target="426">
                    <mxGeometry relative="1" as="geometry"/>
                </mxCell>
                <mxCell id="522" style="edgeStyle=none;html=1;entryX=0.5;entryY=0;entryDx=0;entryDy=0;rounded=0;" edge="1" parent="1" source="518" target="520">
                    <mxGeometry relative="1" as="geometry">
                        <Array as="points">
                            <mxPoint x="802" y="1350"/>
                        </Array>
                    </mxGeometry>
                </mxCell>
                <mxCell id="518" value="if (this.speed &amp;gt; this.maxSpeed)" style="rhombus;whiteSpace=wrap;html=1;" vertex="1" parent="1">
                    <mxGeometry x="577.9" y="1290" width="129.19" height="120" as="geometry"/>
                </mxCell>
                <mxCell id="523" style="edgeStyle=none;html=1;entryX=1;entryY=0.5;entryDx=0;entryDy=0;rounded=0;" edge="1" parent="1" source="520" target="426">
                    <mxGeometry relative="1" as="geometry">
                        <Array as="points">
                            <mxPoint x="802" y="1500"/>
                        </Array>
                    </mxGeometry>
                </mxCell>
                <mxCell id="520" value="this.speed = this.maxSpeed" style="whiteSpace=wrap;html=1;" vertex="1" parent="1">
                    <mxGeometry x="733.25" y="1400" width="136.75" height="50" as="geometry"/>
                </mxCell>
                <mxCell id="524" value="yes" style="text;html=1;align=center;verticalAlign=middle;resizable=0;points=[];autosize=1;strokeColor=none;fillColor=none;" vertex="1" parent="1">
                    <mxGeometry x="712.09" y="1320" width="30" height="20" as="geometry"/>
                </mxCell>
                <mxCell id="525" value="no" style="text;html=1;align=center;verticalAlign=middle;resizable=0;points=[];autosize=1;strokeColor=none;fillColor=none;" vertex="1" parent="1">
                    <mxGeometry x="647.5" y="1425" width="30" height="20" as="geometry"/>
                </mxCell>
                <mxCell id="529" style="edgeStyle=none;rounded=0;html=1;entryX=0.5;entryY=0;entryDx=0;entryDy=0;" edge="1" parent="1" source="526" target="528">
                    <mxGeometry relative="1" as="geometry">
                        <Array as="points">
                            <mxPoint x="1320" y="1350"/>
                        </Array>
                    </mxGeometry>
                </mxCell>
                <mxCell id="531" value="" style="edgeStyle=none;rounded=0;html=1;" edge="1" parent="1" source="526" target="433">
                    <mxGeometry relative="1" as="geometry"/>
                </mxCell>
                <mxCell id="526" value="if (this.speed &amp;lt; 0)" style="rhombus;whiteSpace=wrap;html=1;" vertex="1" parent="1">
                    <mxGeometry x="1133.4099999999999" y="1290" width="129.19" height="120" as="geometry"/>
                </mxCell>
                <mxCell id="530" style="edgeStyle=none;rounded=0;html=1;entryX=1;entryY=0.5;entryDx=0;entryDy=0;" edge="1" parent="1" source="528" target="433">
                    <mxGeometry relative="1" as="geometry">
                        <Array as="points">
                            <mxPoint x="1322" y="1500"/>
                        </Array>
                    </mxGeometry>
                </mxCell>
                <mxCell id="528" value="this.speed = 0" style="whiteSpace=wrap;html=1;" vertex="1" parent="1">
                    <mxGeometry x="1253.41" y="1400" width="136.75" height="50" as="geometry"/>
                </mxCell>
                <mxCell id="532" value="yes" style="text;html=1;align=center;verticalAlign=middle;resizable=0;points=[];autosize=1;strokeColor=none;fillColor=none;" vertex="1" parent="1">
                    <mxGeometry x="1262.6" y="1320" width="30" height="20" as="geometry"/>
                </mxCell>
                <mxCell id="535" value="no" style="text;html=1;align=center;verticalAlign=middle;resizable=0;points=[];autosize=1;strokeColor=none;fillColor=none;" vertex="1" parent="1">
                    <mxGeometry x="1160" y="1425" width="30" height="20" as="geometry"/>
                </mxCell>
            </root>
        </mxGraphModel>
    </diagram>
</mxfile>